<svg xmlns="http://www.w3.org/2000/svg" width="14" height="11.053" viewBox="0 0 14 11.053">
  <path id="mail_FILL0_wght300_GRAD0_opsz48" d="M6.068,20.053A1.069,1.069,0,0,1,5,18.984V10.068A1.069,1.069,0,0,1,6.068,9H17.932A1.069,1.069,0,0,1,19,10.068v8.916a1.069,1.069,0,0,1-1.068,1.068ZM12,14.637,5.829,10.566v8.418a.223.223,0,0,0,.239.239H17.932a.223.223,0,0,0,.239-.239V10.566Zm0-.884,6.005-3.924H6.013ZM5.829,10.566v8.418a.223.223,0,0,0,.239.239H5.829V10.566Z" transform="translate(-5 -9)" fill="#8ea4be"/>
</svg>
