<svg xmlns="http://www.w3.org/2000/svg" width="11.766" height="14" viewBox="0 0 11.766 14">
  <g id="グループ_82" data-name="グループ 82" transform="translate(0 0)">
    <path id="パス_3" data-name="パス 3" d="M186.031,110.881a3.38,3.38,0,1,1,3.38-3.38A3.38,3.38,0,0,1,186.031,110.881Zm0-5.786a2.406,2.406,0,1,0,2.405,2.406A2.406,2.406,0,0,0,186.031,105.095Z" transform="translate(-180.148 -104.12)" fill="#8ea4be"/>
    <path id="パス_4" data-name="パス 4" d="M139.639,276.03H128.847l-.487-.487a5.883,5.883,0,0,1,11.766,0Zm-10.281-.974h9.771a4.909,4.909,0,0,0-9.771,0Z" transform="translate(-128.36 -262.03)" fill="#8ea4be"/>
  </g>
</svg>
