<svg xmlns="http://www.w3.org/2000/svg" width="9.418" height="14" viewBox="0 0 9.418 14">
  <path id="mouse_FILL0_wght300_GRAD0_opsz48" d="M15.709,18.35A4.639,4.639,0,0,1,11,13.641V9.059A4.639,4.639,0,0,1,15.709,4.35a4.639,4.639,0,0,1,4.709,4.709v4.582a4.639,4.639,0,0,1-4.709,4.709Zm.417-9.291H19.6a3.829,3.829,0,0,0-.987-2.608,3.669,3.669,0,0,0-2.49-1.268Zm-4.31,0h3.477V5.183A3.669,3.669,0,0,0,12.8,6.451a3.829,3.829,0,0,0-.987,2.608Zm3.894,8.476A3.9,3.9,0,0,0,19.6,13.641V9.874H11.815v3.767a3.9,3.9,0,0,0,3.894,3.894ZM15.709,9.874ZM16.125,9.059ZM15.292,9.059ZM15.709,9.874Z" transform="translate(-11 -4.35)" fill="#8ea4be"/>
</svg>
