<svg xmlns="http://www.w3.org/2000/svg" width="14" height="13.98" viewBox="0 0 14 13.98">
  <path id="design_services_FILL0_wght300_GRAD0_opsz48" d="M6.581,20.549V17.777l3.836-3.836L6.681,10.185a.95.95,0,0,1-.211-.311.816.816,0,0,1,0-.663A.95.95,0,0,1,6.681,8.9L8.529,7.051A1.1,1.1,0,0,1,8.84,6.83a.776.776,0,0,1,.331-.08.908.908,0,0,1,.643.3l3.776,3.756,3.857-3.857a.422.422,0,0,1,.191-.11.8.8,0,0,1,.211-.03.767.767,0,0,1,.221.03.6.6,0,0,1,.2.11L20.2,8.9a.535.535,0,0,1,.121.181.628.628,0,0,1,0,.442A.535.535,0,0,1,20.2,9.7l-3.857,3.857,3.776,3.776a.988.988,0,0,1,.2.3.843.843,0,0,1,.08.341.776.776,0,0,1-.08.331,1.377,1.377,0,0,1-.2.311l-1.868,1.828a.759.759,0,0,1-.291.211.915.915,0,0,1-.352.07.868.868,0,0,1-.331-.07.759.759,0,0,1-.291-.211l-3.776-3.736L9.353,20.549Zm4.5-7.251,1.868-1.848L11.321,9.823l-.944.964-.643-.643.944-.964L9.172,7.674,7.324,9.542Zm6.508,6.528,1.868-1.868-1.506-1.506-.964.964-.643-.643.964-.964L15.68,14.2,13.832,16.07ZM7.5,19.645H8.951l8.235-8.215L15.72,9.964,7.5,18.179Zm10.324-8.858L19.3,9.321,17.829,7.855,16.363,9.321Z" transform="translate(-6.4 -6.75)" fill="#8ea4be"/>
</svg>
