<svg xmlns="http://www.w3.org/2000/svg" width="30" height="30" viewBox="0 0 30 30">
  <g id="psd_file_design_graphic_digital_artwork_adobe_photoshop_icon_191032" transform="translate(0 0.358)">
    <path id="中マド_2" data-name="中マド 2" d="M23.329,30H6.671A6.783,6.783,0,0,1,0,23.125V6.876A6.784,6.784,0,0,1,6.671,0H23.329A6.784,6.784,0,0,1,30,6.876v16.25A6.783,6.783,0,0,1,23.329,30Zm-6.2-12.206c-.05,0-.085.053-.085.127v1.906a.208.208,0,0,0,.124.194,5.732,5.732,0,0,0,2.557.493c2.241,0,3.634-1.068,3.634-2.787,0-1.322-.786-2.124-2.8-2.857-1.051-.4-1.25-.631-1.25-.918,0-.18.107-.6,1.094-.6a5.409,5.409,0,0,1,2.269.509.16.16,0,0,0,.069.018c.065,0,.108-.057.108-.142V11.975a.229.229,0,0,0-.123-.23,5.834,5.834,0,0,0-2.292-.353c-2.376,0-3.44,1.356-3.44,2.7s.742,2.15,2.646,2.858c1,.375,1.341.621,1.341.972,0,.392-.415.6-1.2.6a4.983,4.983,0,0,1-2.593-.707A.091.091,0,0,0,17.125,17.794ZM11.063,8.75c-1.243,0-2.517.031-3.278.049l-.179,0c-.09,0-.106.035-.106.14V20.2c0,.092.041.139.123.139H9.8c.1,0,.138-.043.138-.139V16.724h1c3.082,0,4.922-1.523,4.922-4.075C15.861,11.735,15.515,8.75,11.063,8.75Zm-.138,5.82c-.5,0-.688,0-.989-.018V10.918c.157-.018.619-.035,1.2-.035,1.478,0,2.292.645,2.292,1.816C13.429,13.958,12.61,14.57,10.925,14.57Z" transform="translate(0 -0.358)" fill="#333"/>
  </g>
</svg>
