<svg xmlns="http://www.w3.org/2000/svg" width="20.728" height="30" viewBox="0 0 20.728 30">
  <path id="figma_logo_icon_172474" d="M70.354,28.364A5.724,5.724,0,0,0,67,18H57.725a5.724,5.724,0,0,0-3.357,10.363,5.719,5.719,0,0,0,0,9.273,5.726,5.726,0,1,0,9.084,4.636v-4.78a5.723,5.723,0,1,0,6.9-9.13Zm.189-4.636A3.549,3.549,0,0,1,67,27.274H63.452V20.183H67a3.549,3.549,0,0,1,3.545,3.545Zm-16.363,0a3.549,3.549,0,0,1,3.545-3.545H61.27v7.091H57.722a3.549,3.549,0,0,1-3.543-3.545Zm0,9.273a3.549,3.549,0,0,1,3.543-3.545H61.27v7.091H57.725A3.549,3.549,0,0,1,54.179,33Zm3.545,12.818a3.545,3.545,0,1,1,0-7.091H61.27v3.545a3.549,3.549,0,0,1-3.545,3.545ZM67,36.546a3.545,3.545,0,0,1-.005-7.091H67a3.545,3.545,0,1,1,0,7.091Z" transform="translate(-51.997 -18.001)"/>
</svg>
