<svg xmlns="http://www.w3.org/2000/svg" width="14" height="14" viewBox="0 0 14 14">
  <path id="headphones_FILL0_wght300_GRAD0_opsz48" d="M10.665,21H8.194A1.195,1.195,0,0,1,7,19.806V14a6.71,6.71,0,0,1,.556-2.728,7.125,7.125,0,0,1,3.716-3.716,6.972,6.972,0,0,1,5.456,0,7.125,7.125,0,0,1,3.716,3.716A6.71,6.71,0,0,1,21,14v5.806A1.195,1.195,0,0,1,19.806,21H17.335V15.524h2.738V14A6.045,6.045,0,0,0,14,7.926,6.045,6.045,0,0,0,7.926,14v1.524h2.738Zm-.926-4.529H7.926v3.335a.282.282,0,0,0,.268.268H9.738Zm8.524,0v3.6h1.544a.282.282,0,0,0,.268-.268V16.471Zm0,0h0Zm-8.524,0h0Z" transform="translate(-7 -7)" fill="#8ea4be"/>
</svg>
