<svg xmlns="http://www.w3.org/2000/svg" width="30" height="30" viewBox="0 0 30 30">
  <path id="js_logo" d="M2,2V32H32V2ZM18.326,25.4c0,2.92-1.714,4.252-4.212,4.252a4.379,4.379,0,0,1-4.232-2.578l2.3-1.386c.443.783.844,1.446,1.815,1.446.924,0,1.513-.362,1.513-1.774V15.774h2.819Zm6.669,4.252a5.409,5.409,0,0,1-5.136-2.88l2.3-1.325a3.077,3.077,0,0,0,2.779,1.714c1.165,0,1.916-.583,1.916-1.393,0-.964-.764-1.306-2.056-1.875l-.7-.3c-2.036-.864-3.381-1.955-3.381-4.252,0-2.116,1.614-3.723,4.125-3.723a4.153,4.153,0,0,1,4,2.256l-2.2,1.407a1.918,1.918,0,0,0-1.815-1.205,1.224,1.224,0,0,0-1.346,1.205c0,.844.523,1.185,1.735,1.714l.7.3c2.4,1.024,3.744,2.076,3.744,4.432,0,2.532-2,3.924-4.668,3.924Z" transform="translate(-2 -2)" fill="#333"/>
</svg>
