<svg xmlns="http://www.w3.org/2000/svg" width="30" height="29.109" viewBox="0 0 30 29.109">
  <path id="中マド_3" data-name="中マド 3" d="M23.329,29.109H6.671a6.64,6.64,0,0,1-3.73-1.139A6.69,6.69,0,0,1,.524,25.035,6.629,6.629,0,0,1,0,22.438V6.671a6.64,6.64,0,0,1,1.139-3.73A6.69,6.69,0,0,1,4.074.524,6.629,6.629,0,0,1,6.671,0H23.329a6.64,6.64,0,0,1,3.73,1.139,6.69,6.69,0,0,1,2.417,2.935A6.629,6.629,0,0,1,30,6.671V22.438a6.64,6.64,0,0,1-1.139,3.73,6.69,6.69,0,0,1-2.935,2.417A6.629,6.629,0,0,1,23.329,29.109ZM20.929,11.3c-2.933,0-4.269,2.417-4.27,4.662a4.156,4.156,0,0,0,4.481,4.463,5.977,5.977,0,0,0,2.7-.512c.091-.037.124-.092.124-.212V18.024c0-.067-.022-.1-.059-.1a.088.088,0,0,0-.047.017,4.932,4.932,0,0,1-1.038.309,6.2,6.2,0,0,1-1.131.1,2.891,2.891,0,0,1-1.877-.54,1.718,1.718,0,0,1-.458-.584,2.043,2.043,0,0,1-.188-.711l3.442-.009a16.482,16.482,0,0,0,1.817-.069.151.151,0,0,0,.139-.139,5.632,5.632,0,0,0,.089-1.181A3.574,3.574,0,0,0,20.929,11.3Zm-8.276,6.191.9,2.629a.178.178,0,0,0,.17.125l.024,0h2.292a.1.1,0,0,0,.091-.037.132.132,0,0,0,0-.122l-4-11.29c-.016-.091-.054-.106-.139-.106H9.164a.118.118,0,0,0-.106.124,3.252,3.252,0,0,1-.176,1.076L5.354,20.065a.16.16,0,0,0,.02.134.147.147,0,0,0,.118.042H7.55a.191.191,0,0,0,.183-.139l.847-2.611Zm-.65-2.2H9.215l.1-.309.008-.023c.449-1.393,1.008-3.128,1.269-4.219h.017c.223.832.607,2.048.946,3.12v0c.169.534.328,1.039.447,1.429Zm9.454-.491-2.311-.006a2.193,2.193,0,0,1,.153-.548,1.777,1.777,0,0,1,.317-.5,1.493,1.493,0,0,1,.505-.364,1.776,1.776,0,0,1,.719-.141,1.608,1.608,0,0,1,.725.158,1.337,1.337,0,0,1,.461.38,1.494,1.494,0,0,1,.313.856v.129A5.352,5.352,0,0,1,21.456,14.8Z" fill="#333"/>
</svg>
