<svg xmlns="http://www.w3.org/2000/svg" width="30" height="30" viewBox="0 0 30 30">
  <path id="中マド_1" data-name="中マド 1" d="M23.329,30H6.671A6.783,6.783,0,0,1,0,23.125V6.875A6.783,6.783,0,0,1,6.671,0H23.329A6.783,6.783,0,0,1,30,6.875V23.125A6.783,6.783,0,0,1,23.329,30ZM19.6,12.422c-.1,0-.138.043-.138.138v8.468c0,.108.056.159.176.159h2.113c.137,0,.159-.047.159-.159V12.561c0-.1-.034-.138-.138-.138Zm-4.8,6.011h0l.9,2.627a.177.177,0,0,0,.169.125h2.317a.1.1,0,0,0,.092-.037.132.132,0,0,0,0-.122l-4-11.29c-.016-.091-.055-.106-.139-.106H11.316a.119.119,0,0,0-.107.124,3.223,3.223,0,0,1-.177,1.075L7.506,21.008a.16.16,0,0,0,.02.135.147.147,0,0,0,.119.042H9.7a.191.191,0,0,0,.184-.139l.847-2.611ZM20.716,8.75a1.323,1.323,0,0,0-1.376,1.359A1.281,1.281,0,0,0,20.7,11.485a1.3,1.3,0,0,0,1.376-1.376A1.273,1.273,0,0,0,20.716,8.75Zm-6.561,7.48H11.367l.134-.417c.439-1.365.986-3.065,1.242-4.134h.018c.223.837.611,2.061.953,3.142.167.528.324,1.024.441,1.409Z" fill="#333"/>
</svg>
