<svg xmlns="http://www.w3.org/2000/svg" width="30" height="30" viewBox="0 0 30 30">
  <path id="git_logo" d="M29.434,13.66,16.333.566a1.931,1.931,0,0,0-2.735,0L10.883,3.285l3.452,3.447a2.3,2.3,0,0,1,2.911,2.924l3.321,3.325a2.293,2.293,0,1,1-1.383,1.3l-3.111-3.1v8.158a2.3,2.3,0,1,1-2.651.435,2.344,2.344,0,0,1,.757-.5V11.045a2.426,2.426,0,0,1-.752-.5,2.289,2.289,0,0,1-.493-2.509L9.545,4.626.561,13.6a1.948,1.948,0,0,0,0,2.734l13.1,13.094a1.931,1.931,0,0,0,2.735,0L29.433,16.4a1.931,1.931,0,0,0,0-2.734Z" transform="translate(0 0.001)" fill="#333"/>
</svg>
