<svg xmlns="http://www.w3.org/2000/svg" width="30" height="29.109" viewBox="0 0 30 29.109">
  <path id="中マド_4" data-name="中マド 4" d="M23.329,29.109H6.671a6.64,6.64,0,0,1-3.73-1.139A6.69,6.69,0,0,1,.524,25.035,6.629,6.629,0,0,1,0,22.438V6.671a6.64,6.64,0,0,1,1.139-3.73A6.69,6.69,0,0,1,4.074.524,6.629,6.629,0,0,1,6.671,0H23.329a6.64,6.64,0,0,1,3.73,1.139,6.69,6.69,0,0,1,2.417,2.935A6.629,6.629,0,0,1,30,6.671V22.438a6.64,6.64,0,0,1-1.139,3.73,6.69,6.69,0,0,1-2.935,2.417A6.629,6.629,0,0,1,23.329,29.109ZM21.218,11.775c-3.012,0-5.116,1.908-5.116,4.64,0,2.764,1.771,4.481,4.623,4.481h.006A8.822,8.822,0,0,0,24.2,20.19c.106-.035.124-.071.124-.159a10.016,10.016,0,0,1-.069-1.287V8.32c0-.07-.016-.106-.105-.106H21.911a.112.112,0,0,0-.111.124V11.81l-.217-.015C21.433,11.784,21.315,11.775,21.218,11.775ZM10.652,16.361c.805,1.467,1.589,2.856,2.346,4.2h0a.294.294,0,0,0,.3.159h2.5a.12.12,0,0,0,.088-.194L12.4,14.76l3.245-5.4a.156.156,0,0,0,.032-.15.106.106,0,0,0-.1-.044H13.3a.229.229,0,0,0-.247.139c-.3.578-.606,1.155-.9,1.713-.431.8-.876,1.634-1.283,2.468h-.017c-.333-.642-.695-1.295-1.045-1.926-.41-.739-.833-1.5-1.214-2.255-.052-.119-.1-.139-.229-.139h-2.5a.1.1,0,0,0-.094.058.106.106,0,0,0,.017.119L9.1,14.93,5.713,20.54a.131.131,0,0,0-.026.13.1.1,0,0,0,.1.046H8.164l.031,0a.237.237,0,0,0,.216-.141l.257-.477,0,0c.659-1.223,1.34-2.488,1.964-3.736h.018ZM20.971,18.8a2.835,2.835,0,0,1-.932-.146A1.993,1.993,0,0,1,19.3,18.2a2.053,2.053,0,0,1-.492-.779,3.307,3.307,0,0,1-.178-1.128,2.758,2.758,0,0,1,.2-1.078,2.15,2.15,0,0,1,.549-.772,2.335,2.335,0,0,1,.8-.464,2.964,2.964,0,0,1,.967-.155,1.821,1.821,0,0,1,.653.088V18.69A2.51,2.51,0,0,1,20.971,18.8Z" fill="#333"/>
</svg>
