<svg xmlns="http://www.w3.org/2000/svg" width="27.171" height="30" viewBox="0 0 27.171 30">
  <path id="webpack_logo" d="M29.443,25.41,17.232,32.286V26.929l7.609-4.168Zm.837-.754V10.27l-4.47,2.571v9.244ZM3.946,25.41l12.211,6.876V26.929L8.549,22.761Zm-.837-.754V10.27l4.47,2.571v9.244ZM3.632,9.339,16.158,2.286V7.467L8.075,11.894Zm26.125,0L17.232,2.286V7.467l8.082,4.427Zm-13.6,16.374L8.653,21.6V13.457l7.5,4.316Zm1.074,0,7.5-4.113V13.457l-7.5,4.316ZM9.16,12.516,16.7,8.393l7.537,4.124L16.7,16.849Z" transform="translate(-3.109 -2.286)" fill="#333"/>
</svg>
