<svg xmlns="http://www.w3.org/2000/svg" width="25.909" height="30" viewBox="0 0 25.909 30">
  <g id="google_analytics_logo_icon_171061" transform="translate(-7.273 -2.909)">
    <path id="パス_48" data-name="パス 48" d="M47.273,6.489v22.5a3.63,3.63,0,0,0,3.58,3.92,3.583,3.583,0,0,0,3.58-3.92V6.659a3.584,3.584,0,0,0-3.58-3.75A3.638,3.638,0,0,0,47.273,6.489Z" transform="translate(-21.25 0)" fill="#333"/>
    <g id="グループ_81" data-name="グループ 81" transform="translate(7.273 14.33)">
      <path id="パス_49" data-name="パス 49" d="M27.273,30.853v11.08a3.63,3.63,0,0,0,3.58,3.92,3.583,3.583,0,0,0,3.58-3.92V31.023a3.584,3.584,0,0,0-3.58-3.75A3.638,3.638,0,0,0,27.273,30.853Z" transform="translate(-17.898 -27.273)" fill="#333"/>
      <circle id="楕円形_21" data-name="楕円形 21" cx="3.58" cy="3.58" r="3.58" transform="translate(0 11.42)" fill="#333"/>
    </g>
  </g>
</svg>
