<svg xmlns="http://www.w3.org/2000/svg" width="30" height="30" viewBox="0 0 30 30">
  <g id="Wordpress" transform="translate(-6 -6)">
    <g id="W_Mark" data-name="W Mark" transform="translate(6 6)">
      <path id="パス_8" data-name="パス 8" d="M21,6.9a13.929,13.929,0,0,1,7.886,2.411,13.768,13.768,0,0,1,3.8,3.8,14.046,14.046,0,0,1,0,15.771,13.768,13.768,0,0,1-3.8,3.8,14.046,14.046,0,0,1-15.771,0,13.768,13.768,0,0,1-3.8-3.8,14.046,14.046,0,0,1,0-15.771,13.768,13.768,0,0,1,3.8-3.8A13.929,13.929,0,0,1,21,6.9M21,6A15,15,0,1,0,36,21,15,15,0,0,0,21,6Z" transform="translate(-6 -6)" fill="#333"/>
      <path id="パス_9" data-name="パス 9" d="M8.33,21a12.669,12.669,0,0,0,7.143,11.4L9.427,15.844A12.755,12.755,0,0,0,8.33,21Zm21.226-.641a6.633,6.633,0,0,0-1.086-3.5A5.906,5.906,0,0,1,27.233,13.9,2.171,2.171,0,0,1,29.4,11.653h.163A12.661,12.661,0,0,0,10.426,14.03h.814c1.325,0,3.377-.163,3.377-.163a.545.545,0,1,1,.087,1.086s-.695.076-1.455.119l4.6,13.712,2.769-8.316L18.656,15.04a8.423,8.423,0,0,1-1.335-.119.545.545,0,1,1,.087-1.086S19.492,14,20.74,14s3.377-.163,3.377-.163a.544.544,0,1,1,.076,1.086s-.684.076-1.444.119L27.32,28.654,28.6,24.54a14.829,14.829,0,0,0,.955-4.18Zm-8.339,1.726-3.8,11.063A12.6,12.6,0,0,0,21,33.67a12.791,12.791,0,0,0,4.2-.727.966.966,0,0,1-.087-.185ZM32.075,14.9a9.769,9.769,0,0,1,.087,1.3A12.05,12.05,0,0,1,31.2,20.74L27.331,31.922a12.669,12.669,0,0,0,4.788-17Z" transform="translate(-6 -6)" fill="#333"/>
    </g>
  </g>
</svg>
