<?xml version="1.0" encoding="UTF-8"?><svg id="a" xmlns="http://www.w3.org/2000/svg" viewBox="0 0 256 256"><defs><style>.b{fill:#f9f8f6;}.c{fill:#9bb6d9;}.d{fill:none;stroke:#f9f8f6;stroke-width:10px;}</style></defs><rect class="c" width="256" height="256"/><g><path class="b" d="M180.05,201.86h-16.09l-47.11-77.74c-9.89-16.48-19.39-32.96-26.56-49.24l-.78,.19c1.36,18.81,1.55,36.06,1.55,61.65v65.14h-15.12V54.14h16.87l47.69,77.74c10.47,17.64,19,32.96,25.78,48.27l.39-.19c-1.55-20.55-1.94-38.19-1.94-61.46V54.14h15.32V201.86Z"/><path class="d" d="M180.05,201.86h-16.09l-47.11-77.74c-9.89-16.48-19.39-32.96-26.56-49.24l-.78,.19c1.36,18.81,1.55,36.06,1.55,61.65v65.14h-15.12V54.14h16.87l47.69,77.74c10.47,17.64,19,32.96,25.78,48.27l.39-.19c-1.55-20.55-1.94-38.19-1.94-61.46V54.14h15.32V201.86Z"/></g></svg>